<svg width="24" height="24" viewBox="0 0 24 24" version="1.1" xmlns="http://www.w3.org/2000/svg" xmlns:xlink="http://www.w3.org/1999/xlink">
<title>twitter</title>
<desc>Created using Figma</desc>
<g id="Canvas" transform="translate(37 -1314)">
<g id="ic/24/social/twitter">
<g id="Shape">
<use xlink:href="#path0_fill" transform="translate(-34 1318.5)" fill="#484848"/>
</g>
<mask id="mask0_outline" mask-type="alpha">
<g id="Shape">
<use xlink:href="#path0_fill" transform="translate(-34 1318.5)" fill="#FFFFFF"/>
</g>
</mask>
</g>
</g>
<defs>
<path id="path0_fill" fill-rule="evenodd" d="M 17.5302 1.59489C 17.6525 1.56364 17.8052 1.59489 17.8969 1.68864C 17.9885 1.78239 18.0191 1.93864 17.9886 2.06364C 17.7136 2.96977 17.1637 3.62602 16.4915 3.96977L 16.4915 4.0634C 16.4915 10.0942 12.092 15 6.71486 15C 3.6902 15 1.24606 14.4688 0.146178 13.5627C 0.023978 13.4377 -0.037141 13.2814 0.023978 13.0939C 0.085059 12.9377 0.237822 12.8127 0.421141 12.8127C 2.22371 12.7814 3.38468 12.344 4.27068 11.8128C 2.55976 11.594 1.49043 10.7504 0.940505 9.15678C 0.879386 9.00053 0.940505 8.84428 1.06271 8.75053C 1.18491 8.65678 1.36823 8.65678 1.49043 8.71928C 1.94871 9.03178 2.40699 9.09428 2.95692 9.09428C 1.79595 8.37566 0.726626 7.18816 0.298903 5.71953C 0.268344 5.56328 0.329463 5.3759 0.451663 5.3134C 0.604426 5.21965 0.757186 5.2509 0.879386 5.34465C 1.21547 5.62578 1.58211 5.81328 2.13203 5.90703C 0.940505 4.65715 0.207263 2.81352 1.24603 0.782516L 1.42935 0.407516L 1.7348 0.720016C 3.62905 2.75102 5.3705 3.68852 8.54792 4.3134L 8.54792 4.1884C 8.54792 1.90739 10.2894 0.0325162 12.4586 0.0012662C 13.314 0.0012662 14.5055 0.626266 14.9944 0.907516C 15.0061 0.907516 15.0177 0.912033 15.0277 0.915939C 15.0438 0.922287 15.0555 0.926803 15.0555 0.907516C 15.6666 0.720016 16.3998 0.407516 17.2552 0.0325162C 17.3775 -0.0299838 17.5302 0.0012662 17.6219 0.0950162C 17.7136 0.188766 17.7441 0.313766 17.683 0.470016C 17.5302 0.907516 17.2858 1.37627 16.9192 1.81364L 17.5302 1.59489ZM 15.7354 3.73784L 15.9133 3.67741C 16.4765 3.46623 16.8025 3.01347 17.01 2.62126L 15.854 3.0136C 15.7058 3.0739 15.528 3.0136 15.4687 2.86272C 15.4094 2.71172 15.4391 2.53069 15.5576 2.44011C 16.0319 2.04778 16.3875 1.62529 16.6543 1.17265C 16.0615 1.41399 15.528 1.62529 15.0834 1.77617C 14.9056 1.83647 14.7277 1.80632 14.5499 1.71587L 14.5316 1.70573C 14.1837 1.51225 13.0853 0.901413 12.4158 0.931198C 10.6374 0.961349 9.21466 2.50053 9.21466 4.37163L 9.21466 5.2166L 8.85897 5.1563C 5.59857 4.55266 3.79051 3.67741 1.89355 1.77617C 1.00434 4.06975 2.84201 5.66936 3.46446 6.12199L 4.20544 6.66521L 3.28658 6.66521C 2.69378 6.66521 2.04171 6.6049 1.4489 6.3333C 2.10101 7.72148 3.43482 8.7476 4.56113 9.07964L 4.47222 9.68315C 4.23512 9.68315 3.99797 9.68315 3.76086 9.7133C 3.13841 9.74358 2.57526 9.74358 2.04174 9.56242C 2.63455 10.7093 3.67196 11.1922 5.36143 11.1922L 6.25064 11.1922L 5.50963 11.7354C 4.59078 12.4596 3.40517 13.1236 1.36 13.2746C 2.33811 13.7574 4.14614 14.2101 6.84341 14.2101C 11.4647 14.2101 15.7354 9.49907 15.7354 4.2509L 15.7354 3.73784Z"/>
</defs>
</svg>
