<svg width="16" height="10" viewBox="0 0 16 10" version="1.1" xmlns="http://www.w3.org/2000/svg" xmlns:xlink="http://www.w3.org/1999/xlink">
<title>close</title>
<desc>Created using Figma</desc>
<g id="Canvas" transform="translate(-2884 -1767)">
<g id="close">
<g id="Shape">
<use xlink:href="#path0_fill" transform="translate(2884.01 1767.01)" fill="#767676"/>
</g>
</g>
</g>
<defs>
<path id="path0_fill" d="M 5.09307 0.713959L 1.39494 4.56717L 15.5714 4.56717C 15.8002 4.56717 15.9762 4.75066 15.9762 4.98919C 15.9762 5.22772 15.8002 5.41121 15.5714 5.41121L 1.39494 5.41121L 5.09307 9.26625C 5.28669 9.46809 5.28669 9.65157 5.09307 9.85341C 5.00506 9.94515 4.91705 9.98185 4.81144 9.98185C 4.70583 9.98185 4.61782 9.94515 4.52981 9.85341L 0.145215 5.2846C -0.0484048 5.08277 -0.0484048 4.89928 0.145215 4.69745L 4.52981 0.126803C 4.89945 -0.260352 5.46271 0.326803 5.09307 0.713959Z"/>
</defs>
</svg>
