<svg width="21" height="22" viewBox="0 0 21 22" version="1.1" xmlns="http://www.w3.org/2000/svg" xmlns:xlink="http://www.w3.org/1999/xlink">
<title>airbnb-logo2</title>
<desc>Created using Figma</desc>
<g id="Canvas" transform="translate(729 -1314)">
<g id="airbnb-logo2">
<g id="Shape">
<use xlink:href="#path0_fill" transform="translate(-728.977 1314.01)" fill="#767676"/>
</g>
</g>
</g>
<defs>
<path id="path0_fill" fill-rule="evenodd" d="M 19.3183 13.6783C 19.6825 14.4312 19.9739 15.0625 20.1439 15.5967C 21.3823 18.9987 18.8326 21.9879 15.7463 21.9855C 15.722 21.9855 15.6249 21.9855 15.5035 21.9612L 15.1635 21.9612C 13.5609 21.7668 11.9072 20.7446 10.2318 18.9233C 8.55621 20.7471 6.90259 21.7668 5.29993 21.9612L 4.96002 21.9612C 4.83856 21.9855 4.74146 21.9855 4.71716 21.9855C 1.63086 21.9855 -0.918823 18.9987 0.31958 15.5967C 0.343872 15.5238 0.440979 15.281 0.635254 14.8197L 1.1452 13.7026L 1.1452 13.6541C 2.86926 9.98499 4.47437 6.68262 6.00415 3.71765L 6.07697 3.57202C 7.04828 1.55408 7.99774 0 10.2318 0C 12.4924 0 13.2695 1.33801 14.3622 3.57202L 14.4594 3.71765C 15.9891 6.68262 17.5942 9.98499 19.3183 13.6541L 19.3183 13.6783ZM 19.0269 17.7845C 18.8569 18.9258 18.0799 19.8728 17.0114 20.3341C 14.9474 21.2327 12.9053 19.7999 11.1569 17.8573C 14.049 14.2368 14.5832 11.42 13.3423 9.59644C 12.6139 8.55225 11.5697 8.04236 10.2318 8.04236C 7.53638 8.04236 6.05273 10.325 6.6355 12.9741C 6.97546 14.4067 7.8739 16.0361 9.30658 17.8573C 8.40814 18.8529 7.55823 19.5571 6.80548 19.9943C 6.22272 20.3099 5.66418 20.5042 5.13 20.5527C 2.67743 20.917 0.756714 18.5372 1.63086 16.0823C 1.75226 15.7666 1.99512 15.1838 2.4079 14.2854L 2.43219 14.2368C 3.7677 11.3204 5.39709 8.01807 7.26685 4.349L 7.31543 4.22754L 7.84961 3.20764L 7.89374 3.12708C 8.27545 2.43018 8.4563 2.09998 9.08801 1.70215C 9.40369 1.50793 9.79224 1.41077 10.2293 1.41077C 11.1035 1.41077 11.7834 1.92065 12.0748 2.3335C 12.1899 2.50623 12.3203 2.72449 12.4778 2.98816L 12.4783 2.98914L 12.4996 3.02478L 12.609 3.20764L 13.119 4.20325L 13.1918 4.349C 15.0615 8.01807 16.6909 11.3204 18.0264 14.2368L 18.0507 14.2611L 18.5364 15.3781L 18.8278 16.0823C 19.0511 16.6432 19.0997 17.2017 19.0269 17.7845ZM 10.2318 16.7405C 8.99335 15.1864 8.26483 13.8241 8.02203 12.6586C 7.77917 11.7115 7.87634 10.9587 8.28912 10.4003C 8.7262 9.74463 9.38184 9.42896 10.2318 9.42896C 11.0816 9.42896 11.7372 9.74463 12.1743 10.4003C 12.5872 10.9587 12.6843 11.7115 12.4415 12.6586C 12.1743 13.8484 11.4459 15.2083 10.2318 16.7405Z"/>
</defs>
</svg>
